<?xml version="1.0" encoding="iso-8859-1"?>
<!-- Uploaded to: SVG Repo, www.svgrepo.com, Generator: SVG Repo Mixer Tools -->
<svg height="800px" width="800px" version="1.1" id="Layer_1" xmlns="http://www.w3.org/2000/svg" xmlns:xlink="http://www.w3.org/1999/xlink" 
	 viewBox="0 0 511.997 511.997" xml:space="preserve">
<circle style="fill:#FFD630;" cx="255.999" cy="255.999" r="255.999"/>
<path style="fill:#F5BE18;" d="M139.615,462.273l42.582-12.886l-11.186-196.134l-49.369-49.369L315.308,81.3l74.148,27.332
	l121.219,121.219c0.87,8.597,1.319,17.316,1.319,26.145c0,141.382-114.617,256-255.999,256c-27.628,0-54.225-4.398-79.155-12.492
	l-37.231-37.231H139.615z"/>
<path style="fill:#8D8D73;" d="M236.588,204.309c0,0-81.309,13.172-76.207,84.7l11.948,167.455l154.142-1.995l-0.385-183.339
	c0.141-29.092-15.471-67.351-62.968-69.17l-0.367-0.014l-0.245,0.077l-12.329,7.422l-8.352-6.076
	c-1.714,0.272-3.455,0.585-5.233,0.934L236.588,204.309z"/>
<path style="fill:#D8DBBA;" d="M195.667,454.469l-9.685-175.009c0,0-3.16-65.96,55.69-76.198l17.004,12.369l-18.001,18.177
	l10.901,32.593l-2.947-25.796l28.774-24.158l-14.904-14.423c66.323,2.911,63.579,69.107,63.579,69.107l0.385,183.339H195.658h0.009
	V454.469z"/>
<path style="fill:#4DD130;" d="M139.615,462.273H360.56l12.016-39.022l-18.282,22.78l-2.793-42.418l-17.053,39.878l-8.085-42.291
	l-11.766,44.322l-14.891-42.921l-7.046,39.067l-12.41-39.684l-9.009,39.684l-12.011-55.477l-16.713,54.257l-11.335-40.704
	l-10.701,33.83l-16.613-32.153l-0.521,41.058L181.89,396.73l-2.05,42.703l-11.735-29.028l-2.367,29.536l-17.756-37.503v39.597
	c0,0-23.088-26.317-23.088-23.778s14.732,44.018,14.732,44.018L139.615,462.273z"/>
<path style="fill:#45BC45;" d="M139.615,462.273h220.942l2.879-20.899l-11.29,13.185l-3.922-26.716L334.216,452.7l-7.799-23.207
	l-11.041,21.955l-13.866-22.908l-8.584,21.76l-11.775-23.683l-9.685,24.481l-13.353-35.567l-15.598,33.894l-11.268-19.076
	l-7.599,18.967l-13.666-20.018l-4.607,22.834l-19.321-31.305l-3.854,28.557l-11.281-12.728l-3.8,12.619l-13.05-18.101l-3.5,20.962
	c0,0-13.263-12.56-13.263-10.56c0,2,0.517,12.034,2.308,20.69L139.615,462.273L139.615,462.273z"/>
<g>
	<path style="fill:#A8A88D;" d="M226.273,329.16c0.104,0.535,0.612,1.247,1.555,2.154c0.939,0.888,2.295,2,4.068,3.319
		c1.16,0.821,2.331,1.632,3.542,2.426c1.207,0.793,2.417,1.591,3.619,2.398c0.526,0.371,1.206,0.861,2.05,1.465
		c0.843,0.603,1.814,1.301,2.942,2.113c0.789,0.535,1.619,1.07,2.49,1.605c0.87,0.535,1.796,1.07,2.78,1.619
		c0.676,0.454,1.432,0.944,2.263,1.483c0.816,0.535,1.764,1.111,2.812,1.728c0.598,0.326,1.12,0.902,1.591,1.755
		c0.454,0.848,0.839,1.931,1.151,3.279l-0.155,1.043l-0.371,0.204c-0.258,0-0.639-0.108-1.12-0.34
		c-0.485-0.231-1.106-0.562-1.863-0.989c-0.137-0.081-0.812-0.371-1.991-0.875c-1.184-0.521-2.884-1.238-5.096-2.181
		c-1.216-0.481-2.349-1.029-3.41-1.632c-1.047-0.603-2.023-1.238-2.933-1.904c-0.53-0.399-1.207-0.848-1.995-1.333
		c-0.807-0.481-1.741-1.002-2.811-1.564c-1.111-0.576-2.063-1.111-2.888-1.619c-0.812-0.508-1.465-0.93-1.977-1.288
		c-1.664-1.178-3.02-2.072-4.04-2.689c-1.038-0.616-1.714-0.934-2.072-0.934c-0.186,0.385-0.258,0.766-0.213,1.165
		c-0.086,1.261-0.108,2.852-0.108,4.756c0.014,1.918,0.041,4.14,0.104,6.679c0.09,0.467,0.072,0.807-0.045,1.029
		c-0.122,0.231-0.331,0.34-0.662,0.34c-1.043,0-1.877-0.258-2.508-0.766c-0.634-0.508-1.052-1.261-1.252-2.29
		c-0.258-1.356-0.458-2.798-0.567-4.289c-0.113-1.51-0.132-3.088-0.05-4.747c-0.005-0.726-0.023-1.369-0.063-1.949
		c-0.041-0.576-0.113-1.111-0.209-1.591c-0.236-1.238-0.975-2.29-2.199-3.169c-1.229-0.893-1.886-1.524-1.958-1.891
		c-0.113-0.589-0.132-1.111-0.036-1.551c0.095-0.436,0.286-0.798,0.576-1.056c0.771-0.562,1.488-1.111,2.158-1.619
		c0.168-0.108,0.277-0.29,0.295-0.535c0.018-0.258-0.023-0.616-0.108-1.07c-0.05-0.258-0.108-0.549-0.168-0.861
		c-0.059-0.304-0.113-0.589-0.168-0.866c-0.376-2.385-0.78-4.852-1.225-7.431c-0.036-0.191-0.09-0.481-0.168-0.875
		c-0.077-0.413-0.209-0.935-0.389-1.578c-0.146-0.481-0.245-0.93-0.299-1.342c-0.05-0.413-0.113-0.793-0.177-1.138
		c-0.268-0.535-0.494-1.002-0.694-1.383c-0.2-0.399-0.322-0.766-0.389-1.111c-0.059-0.313-0.132-0.821-0.209-1.51
		c-0.077-0.685-0.146-1.165-0.204-1.465c-0.068-0.371-0.213-0.893-0.409-1.56c-0.2-0.676-0.322-1.179-0.389-1.524
		c-0.191-0.975-0.146-1.891,0.122-2.784c0.272-0.875,0.789-1.741,1.528-2.603c0.735-0.753,1.528-1.319,2.371-1.714
		c0.857-0.385,1.769-0.576,2.729-0.576c0.454,0,1.129,0.027,2.036,0.095c0.921,0.068,1.623,0.108,2.131,0.108
		c0.344,0,1.36,0.29,3.025,0.875c0.625,0.054,1.188,0.122,1.686,0.222c0.499,0.095,0.902,0.191,1.225,0.304
		c0.721,0.326,1.288,0.571,1.705,0.739c0.404,0.177,0.685,0.272,0.852,0.299c0.485,0.164,0.906,0.299,1.261,0.409
		c0.367,0.113,0.662,0.236,0.897,0.398c0.389,0.168,0.834,0.344,1.342,0.562s1.075,0.454,1.719,0.726
		c1.056,0.481,2.068,1.043,3.038,1.686c0.962,0.643,1.891,1.333,2.789,2.086c1.038,0.975,1.863,1.904,2.466,2.839
		c0.603,0.921,0.998,1.836,1.174,2.757c0.05,0.263,0.113,0.648,0.164,1.138c0.054,0.494,0.077,1.056,0.09,1.673
		c0.081,0.771-0.168,1.605-0.708,2.508c-0.558,0.893-1.41,1.882-2.576,2.952c-1.025,0.944-2,1.728-2.92,2.358
		c-0.921,0.63-1.796,1.07-2.621,1.342c-0.308,0.236-0.526,0.467-0.676,0.685c-0.209,0.258-0.699,0.643-1.469,1.124
		c-0.757,0.481-1.809,1.084-3.147,1.809c-2.421,1.301-4.149,2.163-5.196,2.576c-1.038,0.427-1.519,0.866-1.423,1.36L226.273,329.16z
		 M218.315,309.785c0.436-0.371,0.843-0.744,1.243-1.097c0.38-0.371,0.934-0.549,1.65-0.549c0.326,0,0.793,0.353,1.396,1.07
		c0.598,0.699,0.939,1.234,1.002,1.578c0.036,0.191,0.05,0.616,0.054,1.288c-0.009,0.671-0.05,1.578-0.117,2.729
		c-0.117,2.603-0.159,4.239-0.099,4.879c0.045,0.658,0.063,1.686,0.059,3.088c-0.032,0.344-0.05,0.798-0.054,1.356
		c0.045,0.245,0.122,0.413,0.236,0.521c0.117,0.108,0.249,0.164,0.418,0.164c4.801-2.675,7.291-4.072,7.464-4.181
		c0.209-0.054,0.413-0.122,0.643-0.218c0.213-0.099,0.427-0.195,0.63-0.304l0.44-0.766c1.374-0.989,2.775-2.045,4.217-3.169
		c0.888-0.807,1.506-1.591,1.859-2.371c0.376-0.766,0.467-1.551,0.317-2.331c-0.191-0.989-0.953-1.958-2.295-2.933
		c-1.338-0.957-3.242-1.877-5.7-2.771c-2.113-0.78-4.003-1.342-5.677-1.701c-1.673-0.371-3.165-0.549-4.48-0.549
		c-1.714,0-2.942,0.299-3.691,0.906c-0.762,0.603-1.029,1.497-0.802,2.67c0.173,0.906,0.376,1.591,0.603,2.072
		c0.227,0.463,0.445,0.671,0.681,0.616h0.003V309.785z M262.584,342.804c-0.295-1.51-0.481-2.771-0.553-3.8
		c-0.077-1.043-0.113-1.85-0.059-2.439c-0.141-0.454-0.304-0.915-0.463-1.396c-0.108-0.562-0.236-1.51-0.349-2.812
		c-0.117-1.315-0.254-3.029-0.395-5.156c-0.155-2.027-0.254-3.605-0.29-4.716c-0.036-1.111-0.045-1.796-0.009-2.032
		c-0.146-0.467-0.295-0.957-0.463-1.497c-0.173-0.535-0.399-1.124-0.685-1.769l-1.016-0.643l-0.286-0.481
		c-0.09-0.753-0.195-1.51-0.299-2.263c-0.108-0.766-0.173-1.537-0.186-2.317c-0.132-0.957-0.173-1.809-0.108-2.535
		c0.068-0.726,0.155-1.342,0.254-1.891c0.059-0.122,0.104-0.313,0.15-0.562c0.05-0.236,0.126-0.494,0.24-0.757
		c0.059-0.975,0.108-1.931,0.168-2.893c0.045-0.975,0.126-1.904,0.222-2.825c0.222-0.902,0.658-1.641,1.301-2.208
		c0.634-0.562,1.483-0.921,2.521-1.084c0.662-0.399,1.252-0.699,1.741-0.906c0.499-0.204,0.915-0.299,1.234-0.299
		c0.371,0,0.708,0.15,0.98,0.436c0.267,0.304,0.454,0.717,0.558,1.252c0.041,0.218,0.072,0.957,0.117,2.236
		c0.027,1.274,0.036,3.029,0.014,5.282c0.063,0.753,0.099,1.641,0.104,2.67c0.023,1.043-0.005,2.263-0.041,3.691
		c-0.095,1.578-0.155,3.319-0.182,5.196c-0.036,1.891,0.027,3.976,0.136,6.253c0.063,0.975,0.099,1.918,0.113,2.852
		c0.018,0.944,0.063,1.891,0.113,2.852c0.05,1.111,0.108,2.14,0.177,3.124c0.077,0.975,0.177,1.854,0.326,2.63
		c0.054,0.29,0.141,0.576,0.231,0.839c0.095,0.277,0.155,0.521,0.204,0.766c0.113,0.299,0.173,0.685,0.209,1.165
		c0.027,0.481,0.054,1.056,0.099,1.728c0.032,0.643,0.045,1.234,0.063,1.76c0.018,0.517,0.054,0.915,0.104,1.178
		c0.268,1.369,0.517,2.471,0.753,3.319c0.218,0.848,0.409,1.396,0.544,1.673c0.313,0.712,0.658,1.497,1.011,2.331
		c0.086,0.454-0.385,1.124-1.419,2.032c-1.034,0.893-1.827,1.347-2.358,1.347c-0.317,0-0.625-0.113-0.93-0.34
		c-0.29-0.236-0.616-0.562-0.98-1.029c-0.258-0.427-0.485-0.812-0.662-1.165c-0.177-0.34-0.295-0.671-0.349-0.962
		c-0.032-0.164-0.027-0.409,0.014-0.766c0.045-0.34,0.05-0.603,0.023-0.753c-0.376-0.812-0.739-1.479-1.115-2.013
		c-0.005,0.258-0.041,0.218-0.113-0.164c-0.068-0.371-0.209-1.084-0.409-2.126L262.584,342.804z M282.512,305.672
		c-0.182-0.371-0.526-0.875-1.029-1.497c-0.517-0.63-1.151-1.428-1.927-2.403c-0.784-0.875-1.369-1.56-1.769-2.059
		c-0.38-0.49-0.598-0.834-0.634-1.025c-0.146-0.753,0.481-1.991,1.877-3.704c1.41-1.728,2.503-2.589,3.315-2.589
		c0.639,0.245,1.106,0.481,1.428,0.726h1.207c0.798,0.371,1.6,0.712,2.435,1.043c0.83,0.313,1.632,0.643,2.43,0.998
		c2.353,0.989,3.868,1.787,4.516,2.389c0.652,0.603,1.641,1.274,2.965,2.014c0.209,0.218,0.589,0.576,1.179,1.07
		c0.576,0.494,1.351,1.111,2.322,1.868c0.126,0.081,0.29,0.218,0.494,0.436c0.209,0.222,0.418,0.44,0.658,0.685
		c1.41,1.36,2.625,2.616,3.646,3.768c1.016,1.138,1.809,2.208,2.403,3.21c0.753,1.193,1.383,2.484,1.891,3.841
		c0.521,1.369,0.934,2.852,1.243,4.457c0.571,2.961,0.658,5.468,0.236,7.5c-0.418,2.032-1.374,3.542-2.884,4.525
		c-0.126,0.136-0.326,0.286-0.594,0.467c-0.254,0.164-0.517,0.371-0.766,0.576l-0.436,0.517c-0.353,0.508-1.002,1.056-1.964,1.632
		c-0.944,0.576-2.226,1.193-3.809,1.863c-2.122,0.875-4.335,1.836-6.656,2.879c-0.63,0.358-1.179,0.63-1.632,0.848
		c-0.467,0.209-0.816,0.317-1.093,0.317c-0.78,0-1.238,0.054-1.378,0.164c-0.141,0.108-0.09,1.178,0.182,3.219
		c0.173,1.319,0.34,2.616,0.503,3.882c0.086,0.454,0.326,0.989,0.73,1.591c0.389,0.603,0.957,1.261,1.682,1.964
		c-0.146,0.535-0.317,1.056-0.521,1.56c-0.218,0.508-0.481,1.07-0.834,1.659c-0.34,0.717-0.73,1.265-1.165,1.619
		c-0.44,0.371-0.884,0.549-1.337,0.549c-0.893,0-1.623-0.467-2.236-1.41c-0.589-0.935-1.065-2.344-1.428-4.226
		c-0.113-0.589-0.159-1.333-0.141-2.221c0-0.906,0.077-2.014,0.195-3.315l-0.658-2.335c-0.371-0.164-0.748-0.34-1.115-0.535
		c-0.362-0.177-0.73-0.385-1.088-0.603c-0.517-0.204-0.911-0.454-1.151-0.712c-0.258-0.277-0.404-0.54-0.458-0.812
		c-0.059-0.317,0.494-0.798,1.659-1.428c1.184-0.63,1.664-1.465,1.465-2.508c-0.054-0.29-0.195-0.726-0.427-1.288
		c-0.232-0.562-0.362-0.975-0.413-1.234c-0.068-1.551-0.095-3.124-0.113-4.702c0.023-0.164,0-0.643-0.072-1.442
		c-0.072-0.812-0.186-1.964-0.335-3.455c-0.005-0.454-0.009-1.029,0.023-1.728c0.032-0.699,0.054-1.497,0.059-2.398l-0.553-1.456
		l-0.117-12.764L282.512,305.672z M284.883,300.898c-0.164,0-0.268,0.041-0.322,0.108c-0.054,0.081-0.068,0.209-0.041,0.371
		c3.8,3.292,5.844,5.718,6.153,7.296c0.09,0.481-0.027,2.567-0.344,6.239c-0.335,3.673-0.603,5.9-0.825,6.665l0.639,1.686
		c-0.204,2.702-0.308,5.019-0.29,6.951c0.018,1.949,0.122,3.482,0.344,4.634c0.059,0.304,0.164,0.508,0.317,0.643
		c0.137,0.136,0.326,0.204,0.535,0.204c0.272,0,0.73-0.122,1.383-0.371c0.667-0.231,1.479-0.643,2.475-1.234
		c0.625-0.385,1.261-0.73,1.9-1.043c0.634-0.326,1.283-0.658,1.945-1.002c0.272-0.164,0.571-0.371,0.906-0.63
		c0.349-0.245,0.717-0.549,1.102-0.906c0.549-0.481,0.984-0.861,1.306-1.178c0.313-0.299,0.517-0.494,0.616-0.576
		c0.998-0.812,1.682-1.809,2.036-3.02c0.362-1.193,0.385-2.63,0.068-4.275c-0.191-0.989-0.494-2.004-0.925-3.02
		c-0.427-1.016-0.975-2.054-1.628-3.124l-0.267-0.962c-0.081-0.136-0.209-0.286-0.376-0.454c-0.173-0.182-0.344-0.371-0.553-0.589
		c-0.2-0.164-0.413-0.371-0.658-0.648c-0.227-0.258-0.472-0.603-0.721-1.038c-0.585-0.825-1.564-1.85-2.938-3.088
		c-1.36-1.22-3.142-2.648-5.345-4.248c-0.249-0.182-0.526-0.399-0.852-0.658c-0.322-0.245-0.662-0.521-1.047-0.821
		c-0.553-0.236-1.211-0.508-1.973-0.825c-0.744-0.304-1.623-0.672-2.607-1.097L284.883,300.898z"/>
	<path style="fill:#A8A88D;" d="M258.871,349.238c0,0,1.728-0.182,1.909,0.445c0.177,0.621,0.753,2.176,0.445,2.398
		c-0.308,0.222-0.576,0.717-1.374,0.177c-0.798-0.535-1.333-0.535-1.6-1.02c-0.267-0.49-0.313-1.954-0.313-1.954l1.151-0.059
		l-0.218,0.018V349.238z"/>
	<path style="fill:#A8A88D;" d="M276.976,347.71c0,0,1.728-0.182,1.904,0.445c0.182,0.621,0.757,2.176,0.445,2.398
		c-0.308,0.222-0.576,0.717-1.374,0.177c-0.798-0.535-1.333-0.535-1.596-1.02c-0.268-0.49-0.313-1.954-0.313-1.954l1.151-0.059
		l-0.218,0.018v-0.004H276.976z"/>
</g>
<path style="fill:#666666;" d="M234.376,112.405c-51.206,52.688-63.407,58.437-106.991,82.556
	c-21.537,8.193-3.537,11.326,11.567,8.139c31.676-6.684,85.634-23.374,96.521-20.813c16.527,7.404,39.947,1.333,56.855-16.064
	c12.392-12.751,18.386-28.593,17.397-42.35c7.731-4.462,11.975-24.335,24.349-29.586c5.849-2.48,0.018-2.68,0.018-9.59
	c0-6.388,1.637-7.64-1.619-11.476c-14.75-17.384-47.406-16.641-55.816,2.539L258.57,96.463c-8.561,3.129-16.976,8.497-24.199,15.933
	L234.376,112.405z"/>
<path style="fill:#B3B3B3;" d="M376.625,94.231l13.104,14.704l-20.808-10.497l-36.387-10.076l-0.485-9.2
	c0.69-0.467,2.87-1.401,1.954-3.655l42.622,18.727L376.625,94.231L376.625,94.231z"/>
<path style="fill:#999999;" d="M390.469,109.131l-21.546-10.696L332.535,88.36l-1.909,7.001l36.977,7.749l22.87,6.017
	L390.469,109.131z"/>
<path style="fill:#FF873D;" d="M235.31,194.824c0,0-1.664,3.255-1.664,5.151c0,0.558,0.09,0.775,1.324,1.419l10.946,3.727
	c-4.675,4.801-2.965,7.382-0.095,9.703c-0.304-4.72,1.619-4.997,3.859-6.397c0.821,1.646,1.691,2.227,1.142,6.97
	c-0.549,4.743-4.534,7.754-4.534,7.754s3.909,2,7.532-1.628c3.628-3.628,2-8.624,2-8.624c5.758,8.896,1.097,9.395-1.832,13
	c10.746,0.975,10.85-10.633,7.703-13.254c3.455,4.012,4.394,8.57,0.326,13.308c6.624,0.888,8.379-6.035,4.547-13.059
	c-3.02-5.378-17.702-11.567-24.218-13.485l1.519-2.639c-0.53-2.893-3.106-3.809-8.561-1.945L235.31,194.824L235.31,194.824z"/>
<path style="fill:#666666;" d="M244.909,173.793l-0.24,0.454l-9.563,18.228c0,0-0.925,2.131-0.549,2.888
	c0.38,0.757,3.038-0.535,5.423,0.571c2.385,1.102,3.219,2.612,3.219,2.612s1.823-0.389,1.895-1.895
	c0.072-1.51,17.471-18.404,17.67-17.689C262.964,179.684,244.909,173.793,244.909,173.793z M219.014,173.793l-0.236,0.454
	l-9.563,18.228c0,0-0.93,2.131-0.549,2.888c0.38,0.757,3.038-0.535,5.419,0.571c2.385,1.102,3.224,2.612,3.224,2.612
	s1.823-0.389,1.895-1.895c0.068-1.51,17.471-18.404,17.67-17.689C237.074,179.684,219.014,173.793,219.014,173.793z"/>
<path style="fill:#FFFFFF;" d="M320.785,75.822c-3.025,0-5.477,2.453-5.477,5.477c0,3.024,2.453,5.477,5.477,5.477
	c3.025,0,5.477-2.448,5.477-5.477C326.263,78.275,323.815,75.822,320.785,75.822z"/>
<path style="fill:#333333;" d="M321.693,78.706c-1.519,0-2.753,1.234-2.753,2.753c0,1.524,1.234,2.753,2.753,2.753
	c1.524,0,2.753-1.234,2.753-2.753C324.444,79.939,323.211,78.706,321.693,78.706z"/>
<path style="fill:#808080;" d="M261.256,98.063c22.168,9.087,20.101,38.102,5.627,49.079
	c-44.613,33.839-133.271,32.823-133.271,32.823C208.739,140.317,239.087,88.976,261.256,98.063z"/>
<path style="fill:#FF873D;" d="M209.419,194.824c0,0-1.664,3.255-1.664,5.151c0,0.558,0.09,0.775,1.324,1.419l10.946,3.727
	c-4.679,4.801-2.965,7.382-0.099,9.703c-0.304-4.72,1.623-4.997,3.859-6.397c0.825,1.646,1.691,2.227,1.147,6.97
	c-0.549,4.743-4.534,7.754-4.534,7.754s3.909,2,7.532-1.628c3.628-3.628,2-8.624,2-8.624c5.763,8.896,1.102,9.395-1.832,13
	c10.746,0.975,10.85-10.633,7.708-13.254c3.455,4.012,4.394,8.57,0.326,13.308c6.62,0.888,8.379-6.035,4.547-13.059
	c-3.02-5.378-17.702-11.567-24.218-13.485l1.515-2.639C217.445,193.876,214.869,192.961,209.419,194.824z"/>
</svg>